<svg xmlns="http://www.w3.org/2000/svg" viewBox="0 0 1000 1000" fill="#fff"><path d="M344.24 11.32c-7.66 2.3-17.77 13.17-20.98 22.82-10.87 32.47 11.5 117.32 79.95 304.03l19.9 53.3c.3.6 2.76-.92 5.2-3.52 9.34-9.34 23.28-10.72 66.47-6.9 13.33 1.22 24.5 2 24.8 1.84.46-.6-81.02-235.72-91.74-264.5-11.8-31.55-24.8-62.03-32.16-75.2C381 17 363.08 5.96 344.24 11.32zM764.83 34c-20.06 6.43-41.66 38.9-64.02 95.88-6.43 16.23-91.9 261.6-91.28 262.2 1.23 1.38 91.9 15.78 92.82 14.86 3.83-3.83 63.56-175.68 82.7-238.17 25.27-81.8 27.57-102.3 14.24-122.53C792.7 36.3 776 30.47 764.83 34zm-299.9 395.15c-10.1 3.68-17.46 11.03-20.06 20.37-1.07 3.83-1.38 12.25-1.07 20.68.6 11.95 1.53 15.62 6.13 25.27 14.7 30.94 49.32 48.55 113.8 57.74 31.1 4.44 55.14 5.97 109.36 7.2l48.1 1.07 5.05 4.44c4.75 4.14 8.42 11.8 10.42 21.44.77 3.68 0 4.9-5.5 9.04-8.27 5.82-24.8 13.78-52.53 25.12-34.92 14.1-50.54 23.43-75.05 44.88-23.74 20.83-44.42 47.94-59.12 77.65-20.68 41.97-22.36 74.13-6.74 123.3 8.73 27.26 11.5 38.6 11.5 48.1v9.04l-6.43-1.07c-15.78-2.6-29.4-12.1-39.97-28.18-14.7-22.06-22.2-49.78-23.6-87.3-.46-12.7-1.07-23.28-1.23-23.28-.15 0-3.68 1.84-7.66 3.98-6.74 3.83-7.96 3.98-21.14 3.22-7.8-.46-15.62-1.38-17.46-1.84-3.22-1.07-3.37-.77-2 3.98 3.22 10.88 3.52 27.88.92 38.14-5.67 21.9-25.12 41.35-48.4 48.1-12.25 3.67-34.6 3.37-49-.6-38.9-10.87-86.54-51.77-105.83-91.13-5.82-11.95-10.42-28.8-10.57-38.6 0-7.66 2.9-19.3 5.97-23.13l2.76-3.68 22.06 28.95c42.27 55.3 68.3 75.5 96.8 75.5 20.68-.15 37.68-14.4 35.84-30.17-1.68-15.47-25.73-55.9-55-92.5-31.4-39.36-51.6-59.9-67.54-68.46-25.27-13.48-62.34 12.1-76.73 53.3-5.97 17-7.35 42.9-3.22 62.8 7.66 37.68 25.73 75.05 55.14 114.1 31.25 41.5 65.1 69.84 108.74 91.28 63.4 31.1 140 39.98 214.43 25.12 58.36-11.8 108.3-38.6 153.78-82.7 62.64-60.65 97.4-130.04 111.35-222.08 3.37-21.3 4.6-88.68 2.15-111.96-2.3-22.82-7.5-43.8-13.94-55.75-14.7-27.57-55.75-47.17-137.7-65.7-51.46-11.64-98.02-17-155.46-17.92-39.86-.63-43.53-.48-51.35 2.28zm-149.03 36c-13.17 4.9-31.25 21.9-39.06 36.6-3.37 6.6-4.14 9.8-3.98 19.45 0 9.96.92 13.78 6.6 27.57 26.95 66.78 107.98 167.56 150.7 187.32 16.08 7.5 26.04 6.58 37.06-3.67 14.24-13.02 16.24-26.34 8.27-51.46-21.9-68.46-62.34-146.42-96.65-186.1-20.52-23.6-46.55-35.85-62.94-29.72zm184.42 145.5c5.82 12.87 13.78 33.4 17.77 45.5l7.5 22.67c.3.3 2.6-2.14 5.36-5.36 11.5-13.78 44.57-45.18 57.9-55l14.55-10.72-7.66-.46c-28.33-1.38-69.7-8.73-93.43-16.54l-11.95-3.68c-.32 0 4.12 10.57 9.95 23.6z"/></svg>