<svg xmlns="http://www.w3.org/2000/svg" viewBox="0 0 1000 1000"><path fill="#fff" d="M990 745c0 21.5-6 41.4-15.7 58.9L664.8 457.7l306.1-267.8C982.8 208.8 990 231 990 255v490zM500 520.6L925.9 148c-17.5-9.6-37.1-15.4-58.4-15.4h-735c-21.3 0-40.9 5.9-58.3 15.4L500 520.6zM618.7 498l-98.6 86.3c-5.8 5-12.9 7.5-20.2 7.5-7.2 0-14.4-2.5-20.2-7.5L381.2 498 67.9 848.6c18.8 11.8 40.8 18.8 64.6 18.8h735c23.8 0 45.8-7.1 64.6-18.8L618.7 498zM29.1 189.9C17.2 208.8 10 231 10 255v490c0 21.5 6 41.4 15.7 58.9l309.4-346.3-306-267.7z"/></svg>