<svg xmlns="http://www.w3.org/2000/svg" viewBox="0 0 597.829 597.829"><path d="M376.936 577.564l-27.358-91.194H248.25l-27.358 91.194h-33.438v20.265h222.92v-20.265z" fill="#dadddf"/><path d="M35.464 81.062c-16.8 0-30.398 13.608-30.398 30.398v314.114h587.697V111.46c0-16.8-13.608-30.398-30.398-30.398h-526.9z" fill="#4398d1"/><path d="M562.365 81.062H471.17L126.66 425.573h466.104V111.46c0-16.8-13.608-30.398-30.398-30.398z" fill="#3e8cc7"/><path d="M5.066 425.573v30.398c0 16.8 13.608 30.398 30.398 30.398h526.9c16.8 0 30.398-13.608 30.398-30.398v-30.398H5.066z" fill="#dadddf"/><path d="M358.698 516.768l-9.12-30.398H248.25l-9.12 30.398z" fill="#c1c7c9"/><path d="M96.26 0H501.57c16.8 0 30.398 13.608 30.398 30.398v324.246c0 16.8-13.608 30.398-30.398 30.398H96.26c-16.8 0-30.398-13.608-30.398-30.398V30.398C65.863 13.608 79.47 0 96.26 0z" fill="#87ced9"/><path d="M501.57 0h-5.066L111.46 385.043h390.11c16.8 0 30.398-13.608 30.398-30.398V30.398C531.967 13.608 518.36 0 501.57 0z" fill="#71c4d1"/><path d="M96.26 70.93h405.3v20.265H96.26zm0 50.662h91.194v20.265H96.26zm0 40.53h70.93v20.265H96.26zm0 40.53h60.796v20.265H96.26zm0 40.53h60.796v20.265H96.26zm0 40.53h60.796v20.265H96.26zm0 40.53h91.194v20.265H96.26zm314.114-202.654h91.194v20.265h-91.194zm20.266 40.53h70.93v20.265h-70.93zm10.132 40.53h60.796v20.265h-60.796zm0 40.53h60.796v20.265h-60.796zm0 40.53h60.796v20.265h-60.796zm-30.398 40.53h91.194v20.265h-91.194zM96.26 30.398h20.265v20.265H96.26zm40.53 0h20.265v20.265H136.8zm40.532 0h20.265v20.265h-20.265z" fill="#5eb3d1"/><path d="M410.374 253.317v-40.53H377.32a80.62 80.62 0 0 0-8.633-20.853l23.366-23.366-28.655-28.655-23.366 23.366a80.62 80.62 0 0 0-20.853-8.633v-33.053h-40.53v33.053a80.62 80.62 0 0 0-20.853 8.633l-23.366-23.366-28.655 28.655 23.366 23.366a80.62 80.62 0 0 0-8.633 20.853h-33.053v40.53h33.053a80.62 80.62 0 0 0 8.633 20.853l-23.366 23.366 28.655 28.655 23.366-23.366a80.62 80.62 0 0 0 20.853 8.633v33.053h40.53v-33.053a80.62 80.62 0 0 0 20.853-8.633L363.4 326.19l28.655-28.655-23.366-23.366a80.62 80.62 0 0 0 8.633-20.853h33.053zm-111.46 20.266c-22.383 0-40.53-18.148-40.53-40.53s18.148-40.53 40.53-40.53 40.53 18.148 40.53 40.53-18.148 40.53-40.53 40.53z" fill="#4b46b3"/></svg>