<svg xmlns="http://www.w3.org/2000/svg" viewBox="0 0 587.717 587.717"><path d="M162.14 70.938l-91.194 91.195 403.28 403.28 12.16-48.637h30.398V486.38l48.698-12.098z" fill="#6c63ff"/><path d="M576.8 527.7l-49.103 49.103 60.016 10.913z" fill="#3269a1"/><path d="M565.483 474.28l-48.698 12.098v30.398h-30.398l-12.16 48.637 2.027 2.027 51.443 9.352L576.8 527.7l-9.352-51.444zM40.547 131.737l91.193-91.193 30.4 30.4-91.193 91.193z" fill="#fda72f"/><path d="M64.502.01C28.886.01.018 28.877.018 64.493c0 17.104 6.79 33.51 18.887 45.597l21.643 21.643 91.194-91.194L110.1 18.896C98.01 6.798 81.606.01 64.502.01z" fill="#c1c7c9"/><path d="M47.864 77.474a70.66 70.66 0 0 1-18.816-66.815C-.69 30.225-8.93 70.2 10.637 99.928c2.412 3.658 5.178 7.062 8.278 10.163l21.633 21.643L71.33 100.95 47.864 77.474z" fill="#b8bdbf"/><g fill="#4b46b3"><path d="M70.947 162.133l403.28 403.28 12.16-48.637-385.042-385.042z"/><path d="M293.86 385.052l91.193-91.193 20.262 20.262-91.193 91.193z"/></g><path d="M582.73 96.19l-84.983 84.983c-11.876 11.865-31.107 11.865-42.983 0l-48.21-48.21c-11.865-11.865-11.865-31.118 0-42.983l84.983-84.983c-28.706-8.248-59.388-6.22-86.756 5.735a132.79 132.79 0 0 0-69.794 69.794c-11.957 27.368-13.983 58.05-5.735 86.756L20.11 476.42c-9.84 9.525-16.506 21.846-19.08 35.292-6.313 35.1 17.013 68.67 52.102 74.982 7.57 1.358 15.31 1.358 22.88 0 13.446-2.584 25.757-9.25 35.272-19.1l309.16-309.128c28.706 8.248 59.388 6.22 86.756-5.735a132.79 132.79 0 0 0 69.794-69.794 128.24 128.24 0 0 0 5.735-86.757zM65.88 547.175c-13.993 0-25.332-11.34-25.332-25.332S51.886 496.51 65.88 496.51s25.332 11.34 25.332 25.332-11.338 25.332-25.332 25.332z" fill="#4398d1"/><path d="M116.534 440.792l222.92-222.92c8.4-8.4 21.998-8.4 30.398 0l.01.01c8.4 8.4 8.4 21.998 0 30.398L146.942 471.2c-8.4 8.4-21.998 8.4-30.398 0h-.01c-8.4-8.4-8.4-22.008 0-30.398z" fill="#3e8cc7"/></svg>