<svg xmlns="http://www.w3.org/2000/svg" viewBox="0 0 587.697 587.697"><path d="M30.398 35.464C13.608 35.464 0 49.073 0 65.863v314.114h547.166V65.863c0-16.8-13.608-30.398-30.398-30.398H30.398z" fill="#4398d1"/><path d="M516.768 35.464h-47.29L124.967 379.976h422.2V65.863c0-16.8-13.608-30.4-30.398-30.4z" fill="#3e8cc7"/><g fill="#dadddf"><path d="M361.737 531.967l-27.358-91.195H233.052l-27.358 91.195h-33.438v20.265h222.92v-20.265z"/><path d="M0 379.976v30.398c0 16.8 13.608 30.398 30.398 30.398h486.37c16.8 0 30.398-13.608 30.398-30.398v-30.398H0z"/></g><path d="M343.5 471.17l-9.12-30.4H233.052l-9.12 30.4z" fill="#c1c7c9"/><path d="M40.53 75.995h466.104v303.98H40.53z" fill="#87ced9"/><g fill="#4b46b3"><path d="M81.062 197.588H182.4v81.062H81.062zm141.858 0h101.327v81.062H222.92zm141.857 0h101.327v81.062H364.777zM81.062 319.18H182.4v60.796H81.062zm141.858 0h101.327v60.796H222.92zm141.857 0h101.327v60.796H364.777zM40.53 146.924h466.104v20.265H40.53zm40.532-40.53h60.796v20.265H81.062z"/><path d="M162.123 106.393h60.796v20.265h-60.796zm81.062 0h60.796v20.265h-60.796zm81.06 0h60.796v20.265h-60.796zM397.04 278.65c-1.206 3.242-1.834 6.677-1.864 10.133v30.398h70.93v-40.53H397.04z"/><path d="M395.175 319.18h20.265v60.796h-20.265z"/></g><path d="M395.175 379.976h20.265v60.796h-20.265z" fill="#c1c7c9"/><path d="M466.104 258.384h-40.53a30.3 30.3 0 0 0-28.534 20.265h69.064v-20.265z" fill="#4b46b3"/><path d="M557.298 238.118h-111.46c-16.8 0-30.398 13.608-30.398 30.398v222.92h172.256V268.517c.001-16.8-13.608-30.4-30.398-30.4z" fill="#87ced9"/><path d="M455.97 319.18h91.194v81.062H455.97zm0 121.592h91.194v50.663H455.97z" fill="#4b46b3"/><path d="M415.44 511.7c0 16.8 13.608 30.398 30.398 30.398H557.3c16.8 0 30.398-13.608 30.398-30.398v-20.265H415.44V511.7z" fill="#dadddf"/><path d="M455.97 268.517h91.194v20.265H455.97z" fill="#4b46b3"/></svg>