<svg xmlns="http://www.w3.org/2000/svg" width="1021.759" height="750.264"><style><![CDATA[.B{opacity:.3}.C{fill:#6c63ff}.D{fill:#3f3d56}.E{fill:#2f2e41}.F{fill:#a0616a}.G{stroke-miterlimit:10}.H{stroke-width:2}.I{fill:#d0cde1}]]></style><g fill="#f2f2f2"><path d="M179.107 0L125.72 87.26c29.983 19.475 39.004 59.284 20.345 89.78s-58.2 40.59-89.2 22.76L.1 292.584l547.635 335.053L726.74 335.053z"/><circle cx="97.759" cy="142.593" r="43"/><ellipse cx="496.759" cy="708.593" rx="152" ry="10"/><ellipse cx="239.759" cy="745.593" rx="71" ry="4.671"/><ellipse cx="798.759" cy="685.593" rx="152" ry="10"/></g><path fill="none" stroke="#2f2e41" d="M6.76 669.593h1015" class="G H"/><path d="M183.26 176.093h730v493h-730z" class="D"/><path fill="none" stroke="#2f2e41" d="M183.26 212.152h730" class="G H"/><g class="C"><circle cx="205.759" cy="194.093" r="9"/><circle cx="232.759" cy="194.593" r="9"/><circle cx="259.759" cy="195.093" r="9"/><path d="M228.76 245.593h616v120h-616z" class="B"/></g><g fill="none" stroke="#6c63ff" class="G H"><path d="M228.76 365.593l616-120" class="B"/><path d="M844.76 365.593l-616-120" class="B"/></g><path d="M228.76 441.593h147v193h-147zm469 0h147v193h-147zm-234.5 0h147v193h-147z" class="B C"/><g fill="none" stroke="#6c63ff" class="G H"><path d="M228.76 441.593l147 193" class="B"/><path d="M375.76 441.593l-147 193m235-193l147 193" class="B"/><path d="M610.76 441.593l-147 193m234-193l147 193" class="B"/><path d="M844.76 441.593l-147 193" class="B"/></g><path d="M310.76 245.593h616v120h-616zm415 242h147v193h-147z" class="C"/><path d="M747.26 513.093h104v12h-104zm0 26h104v12h-104zm0 26h104v12h-104zm0 26h104v12h-104zm0 26h104v12h-104zm0 26h104v12h-104z" class="D"/><path d="M264.76 467.593h147v193h-147z" class="C"/><path d="M286.26 532.093h104v12h-104zm0 26h104v12h-104zm0 26h104v12h-104zm362.333-268.13c0 22.47-13.356 30.314-29.834 30.314q-.573 0-1.143-.013a48.69 48.69 0 0 1-2.267-.104c-14.87-1.052-26.424-9.3-26.424-30.197 0-21.625 27.634-48.912 29.7-50.932l.004-.004.12-.116s29.834 28.583 29.834 51.052z" class="D"/><path d="M617.672 342.84l10.912-15.247-10.94 16.92-.03 1.75-2.267-.104 1.298-24.8-10.966-16.963 11 15.37.025.45.89-16.985-9.388-17.528 9.503 14.547.93-35.332v.116l-.154 27.767 9.347-11.008-9.385 13.4-.247 15.207 8.727-14.594-8.763 16.832-.138 8.454 12.67-20.313-12.717 23.263z" class="C"/><circle cx="82.231" cy="339.239" r="23.433" class="E"/><path d="M69.894 354.84s.353 14.464-1.058 14.817 19.403 5.997 19.403 5.997l2.117-19.756zm164.4 123.475s15.523 0 15.875-1.764 3.528 14.464 3.528 14.464l-6.35 2.117s-11.995-5.292-13.053-5.292 0-9.525 0-9.525z" class="F"/><path d="M251.227 484.665s-2.822-9.525-6.35-9.878c0 0 11.995-7.76 12.348-10.23s4.586-8.82 6.35-6.703 1.764 35.632-1.41 39.16-17.287-4.96-17.287-4.96 8.82-3.86 6.35-7.39z" class="E"/><path d="M59.663 619.783l-2.822 15.17 13.053 2.117v-17.287h-10.23z" class="F"/><g class="E"><path d="M59.663 633.19s-2.117-6.703-3.528-5.645-3.528 7.76-3.175 9.525 2.822 15.523 1.764 17.992 5.292 15.17 13.406 14.112 7.41-8.114 7.41-8.114l-2.822-10.936-1.058-17.287s-9.173-1.41-11.995.353z"/><circle cx="74.034" cy="314.576" r="9.696"/><path d="M61.106 309.324a9.7 9.7 0 0 1 8.686-9.644 9.8 9.8 0 0 0-1.01-.052 9.7 9.7 0 0 0-9.696 9.696 9.7 9.7 0 0 0 9.696 9.696c.337 0 .674-.018 1-.052a9.7 9.7 0 0 1-8.686-9.644z"/></g><circle cx="82.241" cy="349.9" r="14.817" class="F"/><path d="M52.96 452.914s.706 17.64 3.528 26.812 12.997 74.497 10.88 79.436S54.37 618.725 56.84 621.9s14.112 2.117 14.112 2.117l15.82-66.266s-3.12-73.086 22.987-74.85 68.794-2.822 68.794-2.822 27.517 8.114 39.865 7.76 19.403 3.175 19.403 3.175l2.117-14.464-54.682-11.995s-50.096-17.287-77.613-12.7-54.682 1.058-54.682 1.058z" class="E"/><g class="I"><path d="M72.716 365.07s-4.233-2.47-5.292 0-8.467 4.586-11.29 2.47-9.878.706-9.878.706l-7.76 22.93s3.88 19.756 7.41 30.693 4.94 33.515 3.528 35.632 28.223 10.584 42.687 5.292 17.64-11.29 17.64-11.29-15.875-22.578-10.584-33.162 1.058-22.578 1.058-22.578l2.117-11.995-11.995-6.703s-.706-6.35-3.528-6.35-14.112-5.645-14.112-5.645z"/><path d="M97.058 384.12h5.292c2.984 2.793 4.318 6.926 3.528 10.936-1.41 6.703-7.775 28.925-7.775 28.925l-5.278-13.755z"/></g><path d="M112.254 440.777s10.558 11.432 2.796 17.43-9.674-13.76-9.674-13.76z" class="F"/><path d="M97.058 416.93l2.47 9.878 4.233 7.76s14.464 9.525 14.464 13.053c0 0-6.35-8.114-14.464 0L96.53 430.16z" class="I"/><ellipse cx="84.957" cy="334.271" rx="16.16" ry="9.696" class="E"/><path d="M52.96 335.083s11.29-6.35 15.875-1.764-13.76 11.642-13.76 11.642z" class="F"/><path d="M48.726 370.01l-2.47-1.764s-2.822-4.233-5.292-2.822-16.934-5.292-16.934-5.292 5.292 2.47 5.292-1.764.706-3.528 4.233-3.528 3.528 1.764 4.94-.706.706-3.88 3.175-2.47 5.292.353 5.997-.706 13.406-2.822 13.406-2.822-4.94-14.464-5.997-15.523-28.223 10.936-28.223 10.936-34.22 9.525-25.4 20.462 40.57 27.517 40.57 27.517z" class="I"/><path d="M430.76 515.593h147v193h-147z" class="C"/><path d="M471.26 546.093h66v66h-66zm-25 80h116v8h-116zm0 22h116v8h-116zm0 22h116v8h-116z" class="D"/><path d="M262.633 725.027c0 14.58-8.668 19.672-19.36 19.672q-.372 0-.742-.008c-.495-.01-.986-.034-1.47-.067-9.65-.683-17.148-6.036-17.148-19.596 0-14.034 17.933-31.74 19.28-33.052l.002-.002.078-.075s19.36 18.55 19.36 33.13z" class="C"/><path d="M242.567 742.468l7.08-9.894-7.1 10.98-.02 1.136-1.47-.067.842-16.1-7.116-11.008 7.14 9.975.017.293.577-11.022-6.093-11.375 6.167 9.44.603-22.93v.075l-.1 18.02 6.065-7.144-6.1 8.696-.16 9.868 5.663-9.47-5.687 10.923-.1 5.486 8.222-13.182-8.252 15.096z" class="D"/></svg>