<svg xmlns="http://www.w3.org/2000/svg" xmlns:xlink="http://www.w3.org/1999/xlink" width="1126.194" height="855"><path d="M544.864 755.938C302.465 737.49 13.394 549.672 28.11 356.28S322.797-17.142 565.196 1.305 947.128 381.167 932.41 574.558s-145.147 199.826-387.546 181.38z" fill="#f2f2f2"/><ellipse cx="565.194" cy="756" rx="506" ry="31" fill="#3f3d56"/><ellipse cx="565.194" cy="755.5" rx="431" ry="20.5" opacity=".1"/><ellipse cx="212.194" cy="836.5" rx="212.194" ry="18.5" fill="#3f3d56"/><ellipse cx="212.194" cy="836.202" rx="180.742" ry="12.234" opacity=".1"/><path fill="#3f3d56" d="M196.194 162h752v590h-752z"/><g fill="#f2f2f2"><path d="M563.638 242.63H378.12a2.25 2.25 0 1 1 0-4.503h185.518a2.251 2.251 0 1 1 0 4.503zm203.08 24.765H474.932a2.251 2.251 0 1 1 0-4.503h291.785a2.25 2.25 0 1 1 0 4.503zM564.54 292.16H379.02a2.25 2.25 0 1 1 0-4.503h185.52a2.25 2.25 0 1 1 0 4.503zm202.177.45H581.2a2.251 2.251 0 1 1 0-4.503h185.518a2.25 2.25 0 1 1 0 4.503zM565 316.926H379.47a2.251 2.251 0 1 1 0-4.503H565a2.25 2.25 0 1 1 0 4.503zm.45 24.766H379.922a2.251 2.251 0 1 1 0-4.503H565.44a2.25 2.25 0 1 1 0 4.503z"/><use xlink:href="#B"/><use xlink:href="#B" y="73.846"/><path d="M649.643 341.242H596.5a2.25 2.25 0 1 1 0-4.503h53.134a2.25 2.25 0 1 1 0 4.503zm89.157 0h-53.134a2.252 2.252 0 1 1 0-4.503H738.8a2.25 2.25 0 1 1 0 4.503zm-307.996-73.847H377.67a2.251 2.251 0 1 1 0-4.503h53.134a2.251 2.251 0 1 1 0 4.503zm133.06 339.965H378.346a2.252 2.252 0 1 1 0-4.503h185.518a2.252 2.252 0 1 1 0 4.503zm-.9 49.532H377.445a2.252 2.252 0 1 1 0-4.503h185.518a2.252 2.252 0 1 1 0 4.503zm.45 24.766H377.895a2.25 2.25 0 1 1 0-4.503h185.518a2.25 2.25 0 1 1 0 4.503zm79.25-24.316H589.53a2.251 2.251 0 1 1 0-4.503h53.134a2.251 2.251 0 1 1 0 4.503zm0 24.316H589.53a2.252 2.252 0 1 1 0-4.503h53.134a2.252 2.252 0 1 1 0 4.503zm89.157-24.316h-53.134a2.251 2.251 0 1 1 0-4.503h53.134a2.251 2.251 0 1 1 0 4.503zm35.122-25.216H475.157a2.251 2.251 0 1 1 0-4.503h291.785a2.251 2.251 0 1 1 0 4.503zm-335.912 0h-53.134a2.251 2.251 0 1 1 0-4.503h53.134a2.251 2.251 0 1 1 0 4.503zm335.912 74.748H475.157a2.25 2.25 0 1 1 0-4.503h291.785a2.252 2.252 0 1 1 0 4.503zm-335.912 0h-53.134a2.25 2.25 0 1 1 0-4.503h53.134a2.25 2.25 0 1 1 0 4.503z"/></g><g fill="#6c63ff"><path d="M519.06 401.13l-72.046 71.145 72.046 71.145 16.2-16.2-54.484-54.485L535.72 417.8l-16.66-16.66zm106.267 0l72.046 71.145-72.046 71.145-16.2-16.2 54.485-54.485-54.935-54.935 16.66-16.66z"/><circle cx="216.194" cy="177" r="9"/><circle cx="240.194" cy="177" r="9"/><circle cx="264.194" cy="177" r="9"/></g><path opacity=".1" d="M196.194 192h752v3h-752z"/><path d="M1126.194 607.454c0 63.77-37.91 86.038-84.676 86.038s-84.676-22.266-84.676-86.038 84.676-144.898 84.676-144.898 84.676 81.127 84.676 144.898z" fill="#f2f2f2"/><path fill="#3f3d56" d="M1038.433 683.736l.867-53.37 36.09-66.027-35.955 57.655.4-23.998 24.873-47.77-24.77 41.42.7-43.16 26.635-38.03-26.525 31.244.438-79.14-2.753 104.77.226-4.322-27.08-41.45 26.646 49.748-2.523 48.203-.075-1.28-31.22-43.62 31.124 48.14-.315 6.028-.057.09.026.495-6.402 122.296h8.553l1.026-63.168 31.05-48.024-30.97 43.275z"/><path d="M122.622 751.1c-2.598 1.446-5.34 2.62-8.178 3.503-5.08 1.387-10.507.878-15.637 2.063-2.1.485-4.386 1.5-5.054 3.55-.5 1.503.043 3.127.553 4.623 5.67 16.62 9.085 34.266 18.125 49.32a74.64 74.64 0 0 0 13.993 16.988c2.055 1.852 4.384 3.664 7.135 3.955a7.25 7.25 0 0 0 7.371-10.182c-.8-1.8-2.317-3.196-3.3-4.916-1.054-2.2-1.672-4.565-1.82-7-.893-7.108-1.754-14.538.7-21.265 1.652-4.512 4.682-8.36 7.206-12.447s4.622-8.772 4.06-13.544c-.383-3.257-1.972-6.237-3.65-9.054-1.68-2.823-5.005-10.408-8.383-11.35-3.507-.978-10.084 4.182-13.142 5.75zm92.435 57.4a14.02 14.02 0 0 1-.663 4.745c-1.058 2.793-3.68 4.706-5.036 7.367-1.885 3.7-1.03 8.174.218 12.135.783 2.483 1.8 5.067 3.912 6.603a12.88 12.88 0 0 0 5.954 1.907c18.036 2.496 36.358 1.064 54.56 1.587 3.317.095 6.83.2 9.725-1.4s4.686-5.697 2.717-8.368c-1.77-2.4-5.265-2.376-8.242-2.518a33.91 33.91 0 0 1-20.913-8.615 15.11 15.11 0 0 1-2.933-3.377 20.61 20.61 0 0 1-1.534-3.518 156.8 156.8 0 0 0-9.084-20.119c-.98-1.815-2.087-3.705-3.906-4.676-1.332-.605-2.777-.92-4.24-.926-4.536-.294-16.283-1.838-19.8 1.7-3.24 3.26-.67 13.352-.743 17.5z" fill="#2f2e41"/><g fill="#fbbebe"><circle cx="242.971" cy="376.72" r="28.975"/><path d="M216.806 400.646c-1.723 4.614-4.647 8.947-8.9 11.43l40.075 8.175c-1.454-5.85-1.645-11.94-.562-17.87a10.3 10.3 0 0 0 .24-4.409c-.754-2.907-4.026-4.307-6.955-4.974-7.314-1.667-13.782-2.56-20.58-5.792-2.078 3.557-1.787 9.34-3.318 13.44z"/></g><g fill="#2f2e41"><path d="M207.57 401.227a31.34 31.34 0 0 1 27.313.714c5.138 2.707 9.392 6.794 13.572 10.826 3.853 3.717 7.962 7.972 8.236 13.32.132 2.6-.676 5.123-1.084 7.684a25.77 25.77 0 0 0 13.78 26.47c3.184 5.303 3.84 11.73 3.9 17.914.185 23.436-7.2 47.16-1.93 69.995 1.24 5.36 3.162 10.554 4.232 15.95 1.387 7 1.318 14.18 2.044 21.27a95.28 95.28 0 0 0 5.113 22.495c-1.744 2.774-5.374 3.837-8.642 3.613s-6.325-1.643-9.242-3.136c-14.123-7.227-27.06-16.757-41.687-22.9-9.678-4.064-19.987-6.595-29.376-11.288s-18.12-12.142-21-22.238c-1.24-4.365-1.318-8.965-1.385-13.503-.285-19.114-.55-38.436 3.6-57.094 3.67-16.454 10.74-32.194 12.284-48.98.502-5.464.513-11.314 3.566-15.873 4.315-6.445 13.632-8.114 16.698-15.238zm18.922-24.097c1.707-2.227 5-2.53 7.728-1.872s5.243 2.064 7.997 2.6c1.266.36 2.625.17 3.743-.526.963-.948 1.54-2.22 1.615-3.57a67.68 67.68 0 0 0 .67-17.38 5.12 5.12 0 0 1 .16-2.437c.682-1.643 2.763-2.035 4.462-2.562 5.768-1.95 9.48-7.563 9.013-13.633a5.42 5.42 0 0 0-1.657-3.741c-1.175-.958-2.82-1.016-4.336-1.03q-11.683-.094-23.367.006c-2.883.025-5.9.096-8.4 1.533-1.848 1.063-3.222 2.773-4.88 4.112-4.326 3.5-10.178 4.2-15.44 6a15.31 15.31 0 0 0-6.768 4.036c-1.75 2-2.592 4.973-1.493 7.393a26.25 26.25 0 0 0 1.887 2.904c3.105 4.964 1.038 11.403 1.5 17.24.58 7.288 11.365 19.112 18.68 20.836 11.808 2.784 4.986-15.113 8.895-19.898z"/><use xlink:href="#C"/></g><use xlink:href="#C" opacity=".1"/><g fill="#2f2e41"><path d="M170.96 583.018c-3.848 10.36 1.808 21.554 6.722 31.452 12.106 24.386 20.513 50.407 28.874 76.317.626 1.94 1.252 4.058.554 5.974-.603 1.36-1.582 2.523-2.822 3.347-5.765 4.38-13.107 5.94-19.975 8.23-6.637 2.215-12.994 5.195-18.943 8.88-4.977 3.084-9.64 6.644-14.292 10.197l-14.812 11.312c-.96.648-1.797 1.46-2.476 2.397-1.43 2.24-.843 5.167-.132 7.728a131.43 131.43 0 0 0 7.252 19.792 6.91 6.91 0 0 0 2.63 3.447c2.312 1.242 5.14-.405 6.905-2.347s3.292-4.36 5.78-5.193 5.222.176 7.818-.19c4.2-.59 6.986-4.457 10.013-7.426 12.365-12.13 33-11.25 46.612-21.977a59.23 59.23 0 0 1 6.231-4.868c2.3-1.36 4.907-2.105 7.293-3.307 7.257-3.654 11.82-11.21 14.262-18.957s3.14-15.928 4.897-23.86c.908-4.1 2.103-8.158 2.507-12.338.26-3.89.175-7.792-.253-11.666l-4.908-60.715c-.4-4.943-.8-9.892-1.576-14.79l-43.728 1.28c-11.606.137-23.424.948-34.436-2.72z"/><path d="M165.603 597.22c1.977 3.18 6.8 3.114 10.104 1.37s5.89-4.673 9.21-6.4c4.464-2.323 9.746-2.235 14.776-2.093 7.964.225 16.025.464 23.687 2.647 7.925 2.257 15.64 6.603 23.834 5.736 1.426-.15 2.985-.56 3.76-1.766.455-.873.67-1.852.62-2.836l.268-7.16c.164-1.238-.034-2.497-.57-3.625a6.08 6.08 0 0 0-2.716-2.079c-11.663-5.646-24.965-6.697-37.915-7.14q-9.875-.338-19.757-.278c-5.59.034-12.303-.775-17.74.72-7.295 2.005-11.265 16.954-7.564 22.906z"/></g><g fill="#6c63ff"><path d="M238.84 409.726c-15.282-.135-29.13-10.223-44.412-10.468-1.846-.128-3.696.19-5.393.93-2.13 1.073-3.53 3.147-5.147 4.898-4.518 4.893-11.06 7.505-15.703 12.28-4.352 4.478-6.773 11.15-5.055 17.153s8.204 10.608 14.28 9.165a36.8 36.8 0 0 1 14.337-19.479c3.558-2.282 7.307-4.25 11.205-5.882 6.868-3.112 14.548-6.283 21.718-3.95a30.64 30.64 0 0 1 7.409 4.04l11.954 8.03c-1.393-5.494-2.645-11.656-5.193-16.718z"/><path d="M175.65 438.374c-2.03 2.532.894 6.2.447 9.413-.297 2.135-2.054 3.765-2.786 5.793-.758 2.1-.356 4.427-.643 6.64a28.49 28.49 0 0 1-1.275 4.73c-1.287 4.592-2.186 9.283-2.686 14.026l-2.675 19.976a75.68 75.68 0 0 0-.846 9.078c.135 2.272-.017 4.552-.452 6.787-.592 2.183-1.904 4.093-2.786 6.175s-1.29 4.602-.1 6.524c-3.99 3.325-5.178 9.854-2.387 14.235a7.9 7.9 0 0 1 1.23 2.265 5.82 5.82 0 0 1-.542 3.34l-2.705 7.207c-.692 1.845-.91 4.653 1.014 5.074-1.594 1.656-2.836 3.618-3.65 5.767-.803 2.193-.437 4.644.972 6.506a8.29 8.29 0 0 1 1.694 2.056c.265 1.076.196 2.207-.196 3.243-.817 3.18-.284 6.56 1.473 9.333a8.37 8.37 0 0 0 8.418 3.609c5.4-1.22 10.272-3.147 15.728-2.146 11.746 2.155 23.53 4.32 34.906 7.952 12.984 4.145 25.556 10.224 39.126 11.5a3.8 3.8 0 0 0 2.617-.407 3.93 3.93 0 0 0 1.21-2.488q2.097-9.832 4.194-19.665c1.7-7.266 2.977-14.62 3.855-22.028.477-4.78.614-9.59.75-14.392l1.08-38.23c.506-5.634-.245-11.31-2.2-16.62l-6.217-19.848c-3.548-11.327-11.688-21.37-14.586-32.882-1.834-7.285-3.19-15.103-8.108-20.78-7.012-8.095-19.145-9.354-29.764-7.962-4.797.63-9.636 1.714-13.785 4.202-4.798 2.877-8.333 7.41-11.753 11.836-2.818 3.65-5.687 6.583-8.57 10.18z"/></g><path d="M200.444 550.823c.875 3.773 2.712 7.25 3.837 10.957 1.884 6.21 1.724 12.896 3.605 19.106.79 2.606 1.933 5.11 2.5 7.773 1.32 6.21-.608 12.636-3.004 18.516s-5.313 11.678-6.09 17.98c-.548 4.438.24 9.45 3.66 12.33 3.552 3 8.713 2.788 13.34 2.4 1.66-.046 3.3-.388 4.84-1.008 3.538-1.674 5.028-5.86 5.855-9.685 2.77-12.82 1.98-26.106 1.174-39.197l-2.106-34.234c-.405-6.59-.84-13.318-2.87-19.646-.74-2.302-2.026-6.954-4.13-8.424-2.083-1.456-8.03-1.52-10.61-1.642-12.098-.568-11.962 16.317-10.002 24.785z" fill="#fbbebe"/><path d="M213.848 424.424c-2.47-1.294-5.584-.736-7.972.704a24.57 24.57 0 0 0-5.972 5.798c-5.34 6.517-10.99 13.995-10.2 22.382.297 3.145 1.5 6.12 2.317 9.172 3.58 13.38-.38 27.53.075 41.373.262 8 2.003 15.866 3.736 23.68.354 1.595.92 3.44 2.463 3.977 1.16.403 2.4-.115 3.557-.55a28.37 28.37 0 0 1 25.963 3.272c2.865-1.53 1.79-6.363 1.15-9.546-1.908-9.458.682-19.214 3.828-28.335s6.91-18.23 7.432-27.865c.59-10.916-3.03-21.57-6.6-31.903-.78-2.255-1.63-4.62-3.44-6.178-1.547-1.15-3.32-1.96-5.203-2.377-3.793-1.12-7.634-1.77-11.138-3.604z" fill="#2f2e41"/><defs ><path id="B" d="M649.643 243.08H596.51a2.25 2.25 0 1 1 0-4.503h53.134a2.25 2.25 0 0 1 1.95 3.377 2.25 2.25 0 0 1-1.95 1.126z"/><path id="C" d="M210.134 696.683c.745 5.322 1.7 10.662 1.445 16.03-.357 7.494-3.06 14.714-3.56 22.2-.373 5.59.5 11.242-.287 16.79-.497 3.553-1.656 6.978-2.373 10.494-2.295 11.575.222 23.586 6.973 33.265a5.45 5.45 0 0 0 2.023 1.961c.8.297 1.658.4 2.508.332 8.433-.172 16.844-.936 25.17-2.287.61-.025 1.187-.28 1.616-.713.188-.287.308-.614.35-.954 1.544-7.936-1.977-15.893-2.872-23.928-.956-8.58 1.103-17.177 3.146-25.565a113.55 113.55 0 0 1 3.467-12.228c.988-2.697 2.18-5.32 3.037-8.063a61.46 61.46 0 0 0 2.202-13.203q.892-10.575.945-21.2a88.96 88.96 0 0 0-1.665-20.01c-1.878-8.338-5.724-16.08-9.536-23.73a15.03 15.03 0 0 0-5.618 2.67 125.38 125.38 0 0 1-15.35 8.481c-3.567 1.657-10.522 2.833-12.786 6.286-2.232 3.405-.792 10.35-.62 14.106q.44 9.668 1.782 19.266z"/></defs></svg>