<svg xmlns="http://www.w3.org/2000/svg" xmlns:xlink="http://www.w3.org/1999/xlink" width="846" height="605"><path fill="#f1f1f1" d="M0 22h822v470H0z"/><g fill="none" stroke="#3f3d56" stroke-miterlimit="10" stroke-width="2"><path d="M23 1h822v470H23z"/><path d="M23 26.087h822"/></g><g fill="#6c63ff"><circle cx="42" cy="14" r="7"/><circle cx="63" cy="14" r="7"/><circle cx="84" cy="14" r="7"/></g><path d="M526.066 326.32c37.358-37.358 48.534-93.54 28.316-142.352s-67.848-80.636-120.68-80.636v130.623z" fill="#3f3d56"/><path d="M433.7 103.333c-59.726.007-111.84 40.518-126.582 98.397s11.648 118.383 64.094 146.96L433.7 233.957zM153 345.126h25.013v25.013H153z" fill="#6c63ff"/><path fill="#3f3d56" d="M189.13 345.126h25.013v25.013H189.13z"/><path fill="#575a89" d="M225.26 345.126h25.013v25.013H225.26z"/><path d="M585.17 350.684H688v4.17H585.17zm0 12.506H688v4.17H585.17zm0 12.507H688v4.17H585.17z" fill="#3f3d56"/><path fill="#ffb9b9" d="M630.35 561.222l1.653 13.772 9.365 4.407 10.466-3.305 7.16 3.305 2.204-12.67-12.67-14.323-18.18 8.814z"/><g fill="#2f2e41"><use xlink:href="#B"/><use xlink:href="#C"/></g><use xlink:href="#B" opacity=".1"/><use xlink:href="#C" opacity=".1"/><path fill="#ffb9b9" d="M559.838 554.384l-6.06 15.424 2.755 21.484 17.628-1.102 9.915-8.814v-18.73l-24.238-8.263z"/><path d="M563.143 573.113s-6.06-19.83-9.365-14.323a87.16 87.16 0 0 0-5.509 11.017c0 0-26.993 17.628-34.154 17.628s-13.772 8.814-4.407 12.12 80.978 7.712 82.08 0-1.102-32.5-4.407-29.747-20.382 8.814-24.238 3.305z" fill="#2f2e41"/><path d="M549.37 329.078l-12.67 22.035c-1.102 2.203-7.16 16.526 4.407 22.035s21.484-40.213 21.484-40.213z" fill="#ffb9b9"/><use xlink:href="#D" fill="#575a88"/><use xlink:href="#D" opacity=".1"/><path d="M562.592 325.773s-3.856 28.645-2.203 34.705-1.102 96.953 1.102 101.91 3.856 36.908 3.856 40.764-4.407 35.256-5.51 38-4.407 12.12-2.754 16.526 24.238 15.424 27.543 11.568.55-15.975 3.305-16.526 6.06-26.442 6.06-26.442l18.18-101.36s34.154-84.834 26.442-93.097-76.02-6.06-76.02-6.06z" fill="#2f2e41"/><g fill="#ffb9b9"><circle cx="582.974" cy="103.222" r="26.993"/><path d="M573.06 125.257s8.814 23.136 7.712 28.094 25.89-8.814 25.89-8.814-1.653-26.993 0-34.154-33.603 14.873-33.603 14.873z"/></g><path d="M647.073 275.98l-.198 7.376s1.653 25.34-1.102 33.603-2.754 14.323-4.407 19.83c-.485 1.603-7.08 2.462-16.34 2.842-8.494.347-19.23.297-29.538.06-17.066-.397-32.975-1.31-35.652-1.8-6.06-1.102 1.102-10.466-1.102-15.424s3.856-68.308 3.856-68.308-.55-35.806 2.203-49.578 13.22-35.806 15.424-38.56.55-4.407-4.407-7.712 0-15.975 0-15.975c9.365-7.712 33.052-8.814 33.052-8.814s36.357 37.46 38.56 45.17c1.333 4.66.854 41.888.27 70.632l-.623 26.657z" fill="#575a88"/><path d="M600.602 344.503s-20.933 42.968-4.407 45.722 24.79-39.112 24.79-39.112z" fill="#ffb9b9"/><path d="M557.735 89.54c-.955-4.63 2.584-8.957 6.3-11.865a46.11 46.11 0 0 1 28.369-9.674c7.224.04 14.68 1.95 20.14 6.68 6.37 5.517 9.274 14.365 8.74 22.775s-4.192 16.385-9.125 23.216c-2.368 3.28-6.17 6.673-9.953 5.244a9.25 9.25 0 0 1-3.682-3.11c-2.427-3.01-4.54-6.26-6.31-9.7-1.354-2.63-2.527-5.405-4.446-7.657s-4.803-3.947-7.735-3.542c-2.42.334-4.797 2.04-7.106 1.238-2.57-.89-3.2-4.176-3.395-6.888-.224-2.972-.065-6.415-.89-9.226-.903.482-10.47 4.727-10.915 2.508z" fill="#2f2e41"/><path d="M647.073 275.98c-6.17 22.25-20.32 59.747-21.13 61.36-.204.413-.523 1.223-.914 2.292-8.494.347-19.23.297-29.538.06 1.598-4.176 3.46-8.208 3.46-9.513 0-2.754 13.22-73.816 13.22-73.816l-19.83-57.84c-9.365-26.442 27.82-21.208 27.82-21.208 19.83-4.958 23.412 3.58 23.412 3.58s1.746 46.438 4.126 68.43c.612 5.635 1.262 9.662 1.934 10.896.88 1.614-.31 7.685-2.556 15.76z" opacity=".1"/><path d="M612.17 159.41s-25.34 10.466-15.975 36.908l19.83 57.84-13.22 73.816c0 2.754-8.263 17.628-4.958 20.382s25.34 8.263 25.89 5.51c1.688-6.346 3.71-12.598 6.06-18.73 1.102-2.203 26.993-71.062 23.687-77.122s-6.06-79.325-6.06-79.325-15.424-24.238-35.256-19.28z" fill="#575a88"/><use xlink:href="#E" fill="#575a89"/><use xlink:href="#E" opacity=".1"/><path d="M548.066 374.32L455.7 281.957 393.213 396.69c50.872 27.678 113.892 18.575 154.853-22.367z" fill="#575a89"/><g stroke="#3f3d56" stroke-miterlimit="10" stroke-width="2"><path fill="none" d="M397 604h396"/><path d="M738.082 604.96V488.867" fill="#3f3d56"/></g><circle cx="738.082" cy="488.867" r="16.417" fill="#3f3d56"/><path d="M738.082 560.418s-2.345-50.443-50.424-44.58" fill="#3f3d56"/><defs ><path id="B" d="M636.96 571.69s-8.54-9.957-8.677-4.978-18.866 22.055-18.866 22.055-29.196 8.814-6.6 14.323 72.164-10.467 73.816-13.772-13.772-28.645-15.424-26.442-9.916 9.916-24.238 8.814z"/><path id="C" d="M616.027 408.08s-3.305 25.89 0 29.747 1.653 11.568 0 12.67 2.203 5.51 4.958 7.712 6.6 12.12 6.6 12.12 14.873 39.112 14.873 42.968 6.6 12.12 6.06 14.873 3.856 11.568 3.305 13.22 7.16 16.526 4.958 18.73-32.5 9.916-30.85 4.958 2.754-11.017 1.653-11.017-6.06-6.06-4.958-8.263-33.052-60.045-33.052-60.045z"/><path id="D" d="M561.49 297.128s-17.628 34.154-14.323 35.256 16.526 7.712 16.526 7.712l6.06-34.705z"/><path id="E" d="M556.066 367.32L458.7 275.957 401.213 394.69c19.165 10.46 40.655 15.924 62.488 15.89 36.07 0 68.727-19.62 92.365-43.26z"/></defs></svg>